<mxfile host="app.diagrams.net" modified="2024-01-17T18:30:25.954Z" agent="Mozilla/5.0 (Windows NT 10.0; Win64; x64) AppleWebKit/537.36 (KHTML, like Gecko) Chrome/120.0.0.0 Safari/537.36" etag="NT7K_0qilaKwbD9TewKm" version="22.1.19" type="github">
  <diagram name="Sayfa -1" id="yCrZOPDf6HmHTxJyL4QL">
    <mxGraphModel dx="2022" dy="1812" grid="1" gridSize="10" guides="1" tooltips="1" connect="1" arrows="1" fold="1" page="1" pageScale="1" pageWidth="827" pageHeight="1169" background="none" math="0" shadow="0">
      <root>
        <mxCell id="0" />
        <mxCell id="1" parent="0" />
        <mxCell id="bwt9VeVOE_LFPgZfpiQ7-2" value="AudioSpectrum : MonoBehaviour" style="swimlane;fontStyle=0;childLayout=stackLayout;horizontal=1;startSize=30;horizontalStack=0;resizeParent=1;resizeParentMax=0;resizeLast=0;collapsible=1;marginBottom=0;whiteSpace=wrap;html=1;labelBackgroundColor=none;rounded=0;sketch=1;curveFitting=1;jiggle=2;fillColor=#B2C9AB;strokeColor=#788AA3;fontColor=#46495D;" parent="1" vertex="1">
          <mxGeometry x="210" y="-430" width="270" height="490" as="geometry">
            <mxRectangle x="330" y="430" width="60" height="30" as="alternateBounds" />
          </mxGeometry>
        </mxCell>
        <mxCell id="bwt9VeVOE_LFPgZfpiQ7-3" value="- float[] spectrum&lt;br&gt;+ Color[] bandColor&lt;br&gt;&lt;br&gt;+ bool[] isBandTrigger&lt;br&gt;- float[] band&lt;br&gt;- float[] bandBuffer&lt;br&gt;- float[] bufferDecrease&lt;br&gt;- float[] maxValue&lt;br&gt;- bool printBands&lt;br&gt;- float[,] maxThresholds&lt;br&gt;- float[,] minThresholds&lt;br&gt;&lt;br&gt;- AudioSource audioSource" style="text;strokeColor=none;fillColor=none;align=left;verticalAlign=middle;spacingLeft=4;spacingRight=4;overflow=hidden;points=[[0,0.5],[1,0.5]];portConstraint=eastwest;rotatable=0;whiteSpace=wrap;html=1;labelBackgroundColor=none;rounded=0;sketch=1;curveFitting=1;jiggle=2;fontColor=#46495D;" parent="bwt9VeVOE_LFPgZfpiQ7-2" vertex="1">
          <mxGeometry y="30" width="270" height="240" as="geometry" />
        </mxCell>
        <mxCell id="bwt9VeVOE_LFPgZfpiQ7-112" value="" style="line;strokeWidth=1;rotatable=0;dashed=0;labelPosition=right;align=left;verticalAlign=middle;spacingTop=0;spacingLeft=6;points=[];portConstraint=eastwest;strokeColor=#788AA3;fontColor=#46495D;fillColor=#B2C9AB;" parent="bwt9VeVOE_LFPgZfpiQ7-2" vertex="1">
          <mxGeometry y="270" width="270" height="10" as="geometry" />
        </mxCell>
        <mxCell id="bwt9VeVOE_LFPgZfpiQ7-4" value="- float GetAverageMaxThreshold();&lt;br&gt;- float GetAverageMinThreshold();&lt;br&gt;- void SetMaxThreshold();&lt;br&gt;- void SetMinThreshold();&lt;br&gt;+ bool BandBuffer();&lt;br&gt;- float[] GetFrequencyBands();&lt;br&gt;- void GetFFT();&lt;br&gt;+ float GetAmplitude();" style="text;fillColor=none;align=left;verticalAlign=middle;spacingLeft=4;spacingRight=4;overflow=hidden;points=[[0,0.5],[1,0.5]];portConstraint=eastwest;rotatable=0;whiteSpace=wrap;html=1;labelBackgroundColor=none;rounded=0;sketch=1;curveFitting=1;jiggle=2;fontColor=#46495D;" parent="bwt9VeVOE_LFPgZfpiQ7-2" vertex="1">
          <mxGeometry y="280" width="270" height="210" as="geometry" />
        </mxCell>
        <mxCell id="bwt9VeVOE_LFPgZfpiQ7-5" style="edgeStyle=orthogonalEdgeStyle;rounded=0;orthogonalLoop=1;jettySize=auto;html=1;entryX=0.5;entryY=0;entryDx=0;entryDy=0;labelBackgroundColor=none;fontColor=default;sketch=1;curveFitting=1;jiggle=2;strokeColor=#788AA3;" parent="1" source="bwt9VeVOE_LFPgZfpiQ7-6" target="bwt9VeVOE_LFPgZfpiQ7-40" edge="1">
          <mxGeometry relative="1" as="geometry" />
        </mxCell>
        <mxCell id="bwt9VeVOE_LFPgZfpiQ7-6" value="Enemy : MonoBehaviour" style="swimlane;fontStyle=0;childLayout=stackLayout;horizontal=1;startSize=30;horizontalStack=0;resizeParent=1;resizeParentMax=0;resizeLast=0;collapsible=1;marginBottom=0;whiteSpace=wrap;html=1;labelBackgroundColor=none;rounded=0;sketch=1;curveFitting=1;jiggle=2;fillColor=#B2C9AB;strokeColor=#788AA3;fontColor=#46495D;" parent="1" vertex="1">
          <mxGeometry x="-270" y="220" width="270" height="350" as="geometry">
            <mxRectangle x="330" y="430" width="60" height="30" as="alternateBounds" />
          </mxGeometry>
        </mxCell>
        <mxCell id="bwt9VeVOE_LFPgZfpiQ7-7" value="- int health&lt;br&gt;- float speed&lt;br&gt;- float amplitude&lt;br&gt;- float amplitudeMultiplier&lt;br&gt;- float originalXPosition&lt;br&gt;- float timeElapsed&lt;br&gt;- AudioSpectrum audioSpectrum&lt;br&gt;- int[] band&lt;br&gt;- EnemyAttack enemyAttack" style="text;strokeColor=none;fillColor=none;align=left;verticalAlign=middle;spacingLeft=4;spacingRight=4;overflow=hidden;points=[[0,0.5],[1,0.5]];portConstraint=eastwest;rotatable=0;whiteSpace=wrap;html=1;labelBackgroundColor=none;rounded=0;sketch=1;curveFitting=1;jiggle=2;fontColor=#46495D;" parent="bwt9VeVOE_LFPgZfpiQ7-6" vertex="1">
          <mxGeometry y="30" width="270" height="240" as="geometry" />
        </mxCell>
        <mxCell id="bwt9VeVOE_LFPgZfpiQ7-8" value="- void Move();&lt;br&gt;- void Attack();&lt;br&gt;- void TakeDamage();&lt;br&gt;- void Die();" style="text;fillColor=none;align=left;verticalAlign=middle;spacingLeft=4;spacingRight=4;overflow=hidden;points=[[0,0.5],[1,0.5]];portConstraint=eastwest;rotatable=0;whiteSpace=wrap;html=1;labelBackgroundColor=none;rounded=0;sketch=1;curveFitting=1;jiggle=2;fontColor=#46495D;" parent="bwt9VeVOE_LFPgZfpiQ7-6" vertex="1">
          <mxGeometry y="270" width="270" height="80" as="geometry" />
        </mxCell>
        <mxCell id="bwt9VeVOE_LFPgZfpiQ7-77" style="edgeStyle=orthogonalEdgeStyle;rounded=0;orthogonalLoop=1;jettySize=auto;html=1;entryX=0.5;entryY=0;entryDx=0;entryDy=0;labelBackgroundColor=none;fontColor=default;sketch=1;curveFitting=1;jiggle=2;strokeColor=#788AA3;" parent="1" source="bwt9VeVOE_LFPgZfpiQ7-9" target="bwt9VeVOE_LFPgZfpiQ7-60" edge="1">
          <mxGeometry relative="1" as="geometry" />
        </mxCell>
        <mxCell id="bwt9VeVOE_LFPgZfpiQ7-9" value="Player : MonoBehaviour&lt;br&gt;" style="swimlane;fontStyle=0;childLayout=stackLayout;horizontal=1;startSize=30;horizontalStack=0;resizeParent=1;resizeParentMax=0;resizeLast=0;collapsible=1;marginBottom=0;whiteSpace=wrap;html=1;labelBackgroundColor=none;rounded=0;sketch=1;curveFitting=1;jiggle=2;fillColor=#B2C9AB;strokeColor=#788AA3;fontColor=#46495D;" parent="1" vertex="1">
          <mxGeometry x="1135" y="-300" width="290" height="180" as="geometry">
            <mxRectangle x="330" y="430" width="60" height="30" as="alternateBounds" />
          </mxGeometry>
        </mxCell>
        <mxCell id="bwt9VeVOE_LFPgZfpiQ7-10" value="&lt;br&gt;- GameObject mobileController&lt;br&gt;- DynamicJoystick joystick&lt;br&gt;- Vector3 joystickDirection" style="text;strokeColor=none;fillColor=none;align=left;verticalAlign=middle;spacingLeft=4;spacingRight=4;overflow=hidden;points=[[0,0.5],[1,0.5]];portConstraint=eastwest;rotatable=0;whiteSpace=wrap;html=1;labelBackgroundColor=none;rounded=0;sketch=1;curveFitting=1;jiggle=2;fontColor=#46495D;" parent="bwt9VeVOE_LFPgZfpiQ7-9" vertex="1">
          <mxGeometry y="30" width="290" height="90" as="geometry" />
        </mxCell>
        <mxCell id="bwt9VeVOE_LFPgZfpiQ7-11" value="+ Main();" style="text;fillColor=none;align=left;verticalAlign=middle;spacingLeft=4;spacingRight=4;overflow=hidden;points=[[0,0.5],[1,0.5]];portConstraint=eastwest;rotatable=0;whiteSpace=wrap;html=1;labelBackgroundColor=none;rounded=0;sketch=1;curveFitting=1;jiggle=2;fontColor=#46495D;strokeColor=#788AA3;" parent="bwt9VeVOE_LFPgZfpiQ7-9" vertex="1">
          <mxGeometry y="120" width="290" height="60" as="geometry" />
        </mxCell>
        <mxCell id="bwt9VeVOE_LFPgZfpiQ7-12" style="edgeStyle=orthogonalEdgeStyle;rounded=0;orthogonalLoop=1;jettySize=auto;html=1;entryX=0.5;entryY=0;entryDx=0;entryDy=0;labelBackgroundColor=none;fontColor=default;sketch=1;curveFitting=1;jiggle=2;strokeColor=#788AA3;" parent="1" source="bwt9VeVOE_LFPgZfpiQ7-13" target="bwt9VeVOE_LFPgZfpiQ7-22" edge="1">
          <mxGeometry relative="1" as="geometry" />
        </mxCell>
        <mxCell id="bwt9VeVOE_LFPgZfpiQ7-13" value="Crew" style="swimlane;fontStyle=0;childLayout=stackLayout;horizontal=1;startSize=30;horizontalStack=0;resizeParent=1;resizeParentMax=0;resizeLast=0;collapsible=1;marginBottom=0;whiteSpace=wrap;html=1;labelBackgroundColor=none;rounded=0;sketch=1;curveFitting=1;jiggle=2;fillColor=#B2C9AB;strokeColor=#788AA3;fontColor=#46495D;" parent="1" vertex="1">
          <mxGeometry x="770" y="150" width="270" height="120" as="geometry">
            <mxRectangle x="330" y="430" width="60" height="30" as="alternateBounds" />
          </mxGeometry>
        </mxCell>
        <mxCell id="bwt9VeVOE_LFPgZfpiQ7-14" value="+ CrewMember crewMember" style="text;strokeColor=none;fillColor=none;align=left;verticalAlign=middle;spacingLeft=4;spacingRight=4;overflow=hidden;points=[[0,0.5],[1,0.5]];portConstraint=eastwest;rotatable=0;whiteSpace=wrap;html=1;labelBackgroundColor=none;rounded=0;sketch=1;curveFitting=1;jiggle=2;fontColor=#46495D;" parent="bwt9VeVOE_LFPgZfpiQ7-13" vertex="1">
          <mxGeometry y="30" width="270" height="30" as="geometry" />
        </mxCell>
        <mxCell id="bwt9VeVOE_LFPgZfpiQ7-15" value="+ GameObject crewMemberPrefab" style="text;strokeColor=none;fillColor=none;align=left;verticalAlign=middle;spacingLeft=4;spacingRight=4;overflow=hidden;points=[[0,0.5],[1,0.5]];portConstraint=eastwest;rotatable=0;whiteSpace=wrap;html=1;labelBackgroundColor=none;rounded=0;sketch=1;curveFitting=1;jiggle=2;fontColor=#46495D;" parent="bwt9VeVOE_LFPgZfpiQ7-13" vertex="1">
          <mxGeometry y="60" width="270" height="30" as="geometry" />
        </mxCell>
        <mxCell id="bwt9VeVOE_LFPgZfpiQ7-16" value="Item 3" style="text;strokeColor=none;fillColor=none;align=left;verticalAlign=middle;spacingLeft=4;spacingRight=4;overflow=hidden;points=[[0,0.5],[1,0.5]];portConstraint=eastwest;rotatable=0;whiteSpace=wrap;html=1;labelBackgroundColor=none;rounded=0;sketch=1;curveFitting=1;jiggle=2;fontColor=#46495D;" parent="bwt9VeVOE_LFPgZfpiQ7-13" vertex="1">
          <mxGeometry y="90" width="270" height="30" as="geometry" />
        </mxCell>
        <mxCell id="bwt9VeVOE_LFPgZfpiQ7-20" style="edgeStyle=orthogonalEdgeStyle;rounded=0;orthogonalLoop=1;jettySize=auto;html=1;labelBackgroundColor=none;fontColor=default;sketch=1;curveFitting=1;jiggle=2;strokeColor=#788AA3;shadow=1;" parent="1" source="bwt9VeVOE_LFPgZfpiQ7-22" target="bwt9VeVOE_LFPgZfpiQ7-24" edge="1">
          <mxGeometry relative="1" as="geometry">
            <Array as="points">
              <mxPoint x="855" y="550" />
              <mxPoint x="495" y="550" />
            </Array>
          </mxGeometry>
        </mxCell>
        <mxCell id="bwt9VeVOE_LFPgZfpiQ7-21" style="edgeStyle=orthogonalEdgeStyle;rounded=0;orthogonalLoop=1;jettySize=auto;html=1;entryX=0.5;entryY=0;entryDx=0;entryDy=0;labelBackgroundColor=none;fontColor=default;sketch=1;curveFitting=1;jiggle=2;strokeColor=#788AA3;" parent="1" source="bwt9VeVOE_LFPgZfpiQ7-22" target="bwt9VeVOE_LFPgZfpiQ7-31" edge="1">
          <mxGeometry relative="1" as="geometry">
            <Array as="points">
              <mxPoint x="855" y="550" />
              <mxPoint x="1055" y="550" />
            </Array>
          </mxGeometry>
        </mxCell>
        <mxCell id="bwt9VeVOE_LFPgZfpiQ7-22" value="CrewMemberSO : ScriptableObject" style="swimlane;fontStyle=0;childLayout=stackLayout;horizontal=1;startSize=30;horizontalStack=0;resizeParent=1;resizeParentMax=0;resizeLast=0;collapsible=1;marginBottom=0;whiteSpace=wrap;html=1;labelBackgroundColor=none;rounded=0;sketch=1;curveFitting=1;jiggle=2;fillColor=#B2C9AB;strokeColor=#788AA3;fontColor=#46495D;" parent="1" vertex="1">
          <mxGeometry x="720" y="350" width="270" height="90" as="geometry">
            <mxRectangle x="330" y="430" width="60" height="30" as="alternateBounds" />
          </mxGeometry>
        </mxCell>
        <mxCell id="bwt9VeVOE_LFPgZfpiQ7-23" value="+ string crewMemberName&lt;br&gt;+ GameObject crewMemberPrefab&lt;br&gt;+ CrewMemberType crewMemberType" style="text;strokeColor=none;fillColor=none;align=left;verticalAlign=middle;spacingLeft=4;spacingRight=4;overflow=hidden;points=[[0,0.5],[1,0.5]];portConstraint=eastwest;rotatable=0;whiteSpace=wrap;html=1;labelBackgroundColor=none;rounded=0;sketch=1;curveFitting=1;jiggle=2;fontColor=#46495D;" parent="bwt9VeVOE_LFPgZfpiQ7-22" vertex="1">
          <mxGeometry y="30" width="270" height="60" as="geometry" />
        </mxCell>
        <mxCell id="bwt9VeVOE_LFPgZfpiQ7-24" value="Laser : MonoBehaviour" style="swimlane;fontStyle=0;childLayout=stackLayout;horizontal=1;startSize=30;horizontalStack=0;resizeParent=1;resizeParentMax=0;resizeLast=0;collapsible=1;marginBottom=0;whiteSpace=wrap;html=1;labelBackgroundColor=none;rounded=0;sketch=1;curveFitting=1;jiggle=2;fillColor=#B2C9AB;strokeColor=#788AA3;fontColor=#46495D;" parent="1" vertex="1">
          <mxGeometry x="440" y="620" width="270" height="180" as="geometry">
            <mxRectangle x="330" y="430" width="60" height="30" as="alternateBounds" />
          </mxGeometry>
        </mxCell>
        <mxCell id="bwt9VeVOE_LFPgZfpiQ7-25" value="- float laserDamage&lt;br&gt;- float laserDuration" style="text;strokeColor=none;fillColor=none;align=left;verticalAlign=middle;spacingLeft=4;spacingRight=4;overflow=hidden;points=[[0,0.5],[1,0.5]];portConstraint=eastwest;rotatable=0;whiteSpace=wrap;html=1;labelBackgroundColor=none;rounded=0;sketch=1;curveFitting=1;jiggle=2;fontColor=#46495D;" parent="bwt9VeVOE_LFPgZfpiQ7-24" vertex="1">
          <mxGeometry y="30" width="270" height="90" as="geometry" />
        </mxCell>
        <mxCell id="bwt9VeVOE_LFPgZfpiQ7-110" value="" style="line;strokeWidth=1;rotatable=0;dashed=0;labelPosition=right;align=left;verticalAlign=middle;spacingTop=0;spacingLeft=6;points=[];portConstraint=eastwest;strokeColor=#788AA3;fontColor=#46495D;fillColor=#B2C9AB;sketch=1;curveFitting=1;jiggle=2;" parent="bwt9VeVOE_LFPgZfpiQ7-24" vertex="1">
          <mxGeometry y="120" width="270" height="10" as="geometry" />
        </mxCell>
        <mxCell id="bwt9VeVOE_LFPgZfpiQ7-26" value="- void ShootLaser();&lt;br&gt;- OnTriggerEnter2D();" style="text;fillColor=none;align=left;verticalAlign=middle;spacingLeft=4;spacingRight=4;overflow=hidden;points=[[0,0.5],[1,0.5]];portConstraint=eastwest;rotatable=0;whiteSpace=wrap;html=1;labelBackgroundColor=none;rounded=0;sketch=1;curveFitting=1;jiggle=2;fontColor=#46495D;" parent="bwt9VeVOE_LFPgZfpiQ7-24" vertex="1">
          <mxGeometry y="130" width="270" height="50" as="geometry" />
        </mxCell>
        <mxCell id="bwt9VeVOE_LFPgZfpiQ7-27" style="edgeStyle=orthogonalEdgeStyle;rounded=0;orthogonalLoop=1;jettySize=auto;html=1;labelBackgroundColor=none;fontColor=default;sketch=1;curveFitting=1;jiggle=2;strokeColor=#788AA3;" parent="1" target="bwt9VeVOE_LFPgZfpiQ7-28" edge="1">
          <mxGeometry relative="1" as="geometry">
            <mxPoint x="775" y="550" as="sourcePoint" />
            <Array as="points">
              <mxPoint x="855" y="550" />
            </Array>
          </mxGeometry>
        </mxCell>
        <mxCell id="bwt9VeVOE_LFPgZfpiQ7-28" value="Missile : MonoBehaviour" style="swimlane;fontStyle=0;childLayout=stackLayout;horizontal=1;startSize=30;horizontalStack=0;resizeParent=1;resizeParentMax=0;resizeLast=0;collapsible=1;marginBottom=0;whiteSpace=wrap;html=1;labelBackgroundColor=none;rounded=0;sketch=1;curveFitting=1;jiggle=2;fillColor=#B2C9AB;strokeColor=#788AA3;fontColor=#46495D;" parent="1" vertex="1">
          <mxGeometry x="720" y="620" width="270" height="270" as="geometry">
            <mxRectangle x="330" y="430" width="60" height="30" as="alternateBounds" />
          </mxGeometry>
        </mxCell>
        <mxCell id="bwt9VeVOE_LFPgZfpiQ7-29" value="- Rigidbody2D rb&lt;br&gt;- float missileSpeed&lt;br&gt;- float damage&lt;br&gt;- float targetRange&lt;br&gt;- float rotationSpeed&lt;br&gt;- float missileLifetime" style="text;strokeColor=none;fillColor=none;align=left;verticalAlign=middle;spacingLeft=4;spacingRight=4;overflow=hidden;points=[[0,0.5],[1,0.5]];portConstraint=eastwest;rotatable=0;whiteSpace=wrap;html=1;labelBackgroundColor=none;rounded=0;sketch=1;curveFitting=1;jiggle=2;fontColor=#46495D;" parent="bwt9VeVOE_LFPgZfpiQ7-28" vertex="1">
          <mxGeometry y="30" width="270" height="130" as="geometry" />
        </mxCell>
        <mxCell id="bwt9VeVOE_LFPgZfpiQ7-108" value="" style="line;strokeWidth=1;rotatable=0;dashed=0;labelPosition=right;align=left;verticalAlign=middle;spacingTop=0;spacingLeft=6;points=[];portConstraint=eastwest;strokeColor=#788AA3;fontColor=#46495D;fillColor=#B2C9AB;sketch=1;curveFitting=1;jiggle=2;" parent="bwt9VeVOE_LFPgZfpiQ7-28" vertex="1">
          <mxGeometry y="160" width="270" height="10" as="geometry" />
        </mxCell>
        <mxCell id="bwt9VeVOE_LFPgZfpiQ7-30" value="- void Move();&lt;br&gt;- void LocateEnemy();&lt;br&gt;- void MissileRotation();&lt;br&gt;- void DisableMissile();&lt;br&gt;- OnTriggerEnter2D();" style="text;fillColor=none;align=left;verticalAlign=middle;spacingLeft=4;spacingRight=4;overflow=hidden;points=[[0,0.5],[1,0.5]];portConstraint=eastwest;rotatable=0;whiteSpace=wrap;html=1;labelBackgroundColor=none;rounded=0;sketch=1;curveFitting=1;jiggle=2;fontColor=#46495D;strokeColor=none;strokeWidth=1;" parent="bwt9VeVOE_LFPgZfpiQ7-28" vertex="1">
          <mxGeometry y="170" width="270" height="100" as="geometry" />
        </mxCell>
        <mxCell id="bwt9VeVOE_LFPgZfpiQ7-31" value="SonicBomb : MonoBehaviour" style="swimlane;fontStyle=0;childLayout=stackLayout;horizontal=1;startSize=30;horizontalStack=0;resizeParent=1;resizeParentMax=0;resizeLast=0;collapsible=1;marginBottom=0;whiteSpace=wrap;html=1;labelBackgroundColor=none;rounded=0;sketch=1;curveFitting=1;jiggle=2;fillColor=#B2C9AB;strokeColor=#788AA3;fontColor=#46495D;" parent="1" vertex="1">
          <mxGeometry x="1000" y="620" width="270" height="280" as="geometry">
            <mxRectangle x="330" y="430" width="60" height="30" as="alternateBounds" />
          </mxGeometry>
        </mxCell>
        <mxCell id="bwt9VeVOE_LFPgZfpiQ7-32" value="- Rigidbody2D rb;&lt;br&gt;- float force;&lt;br&gt;- float bombLifetime&lt;br&gt;- bool isCollided&lt;br&gt;&lt;br&gt;- ShockwaveEffect shockwaveEffect&lt;br&gt;- SpriteRenderer soundBombSprite" style="text;strokeColor=none;fillColor=none;align=left;verticalAlign=middle;spacingLeft=4;spacingRight=4;overflow=hidden;points=[[0,0.5],[1,0.5]];portConstraint=eastwest;rotatable=0;whiteSpace=wrap;html=1;labelBackgroundColor=none;rounded=0;sketch=1;curveFitting=1;jiggle=2;fontColor=#46495D;" parent="bwt9VeVOE_LFPgZfpiQ7-31" vertex="1">
          <mxGeometry y="30" width="270" height="120" as="geometry" />
        </mxCell>
        <mxCell id="bwt9VeVOE_LFPgZfpiQ7-109" value="" style="line;strokeWidth=1;rotatable=0;dashed=0;labelPosition=right;align=left;verticalAlign=middle;spacingTop=0;spacingLeft=6;points=[];portConstraint=eastwest;strokeColor=#788AA3;fontColor=#46495D;fillColor=#B2C9AB;sketch=1;curveFitting=1;jiggle=2;" parent="bwt9VeVOE_LFPgZfpiQ7-31" vertex="1">
          <mxGeometry y="150" width="270" height="10" as="geometry" />
        </mxCell>
        <mxCell id="bwt9VeVOE_LFPgZfpiQ7-33" value="- OnTriggerEnter2D();&lt;br&gt;- DisableObject();" style="text;fillColor=none;align=left;verticalAlign=middle;spacingLeft=4;spacingRight=4;overflow=hidden;points=[[0,0.5],[1,0.5]];portConstraint=eastwest;rotatable=0;whiteSpace=wrap;html=1;labelBackgroundColor=none;rounded=0;sketch=1;curveFitting=1;jiggle=2;fontColor=#46495D;" parent="bwt9VeVOE_LFPgZfpiQ7-31" vertex="1">
          <mxGeometry y="160" width="270" height="120" as="geometry" />
        </mxCell>
        <mxCell id="bwt9VeVOE_LFPgZfpiQ7-34" value="CrewMemberType&amp;nbsp;" style="swimlane;fontStyle=0;childLayout=stackLayout;horizontal=1;startSize=30;horizontalStack=0;resizeParent=1;resizeParentMax=0;resizeLast=0;collapsible=1;marginBottom=0;whiteSpace=wrap;html=1;labelBackgroundColor=none;rounded=0;sketch=1;curveFitting=1;jiggle=2;fillColor=#B2C9AB;strokeColor=#788AA3;fontColor=#46495D;" parent="1" vertex="1">
          <mxGeometry x="550" y="350" width="120" height="90" as="geometry">
            <mxRectangle x="550" y="350" width="60" height="30" as="alternateBounds" />
          </mxGeometry>
        </mxCell>
        <mxCell id="bwt9VeVOE_LFPgZfpiQ7-35" value="projectile,&lt;br&gt;laser" style="text;strokeColor=none;fillColor=none;align=left;verticalAlign=middle;spacingLeft=4;spacingRight=4;overflow=hidden;points=[[0,0.5],[1,0.5]];portConstraint=eastwest;rotatable=0;whiteSpace=wrap;html=1;labelBackgroundColor=none;rounded=0;sketch=1;curveFitting=1;jiggle=2;fontColor=#46495D;" parent="bwt9VeVOE_LFPgZfpiQ7-34" vertex="1">
          <mxGeometry y="30" width="120" height="60" as="geometry" />
        </mxCell>
        <mxCell id="bwt9VeVOE_LFPgZfpiQ7-36" style="edgeStyle=orthogonalEdgeStyle;rounded=0;orthogonalLoop=1;jettySize=auto;html=1;exitX=0;exitY=0.5;exitDx=0;exitDy=0;entryX=0.989;entryY=0.342;entryDx=0;entryDy=0;entryPerimeter=0;labelBackgroundColor=none;fontColor=default;sketch=1;curveFitting=1;jiggle=2;strokeColor=#788AA3;" parent="1" source="bwt9VeVOE_LFPgZfpiQ7-23" target="bwt9VeVOE_LFPgZfpiQ7-35" edge="1">
          <mxGeometry relative="1" as="geometry" />
        </mxCell>
        <mxCell id="bwt9VeVOE_LFPgZfpiQ7-37" value="enum EnemyState" style="swimlane;fontStyle=0;childLayout=stackLayout;horizontal=1;startSize=30;horizontalStack=0;resizeParent=1;resizeParentMax=0;resizeLast=0;collapsible=1;marginBottom=0;whiteSpace=wrap;html=1;labelBackgroundColor=none;rounded=0;sketch=1;curveFitting=1;jiggle=2;fillColor=#B2C9AB;strokeColor=#788AA3;fontColor=#46495D;" parent="1" vertex="1">
          <mxGeometry x="-470" y="340" width="140" height="100" as="geometry">
            <mxRectangle x="330" y="430" width="60" height="30" as="alternateBounds" />
          </mxGeometry>
        </mxCell>
        <mxCell id="bwt9VeVOE_LFPgZfpiQ7-38" value="Idle,&lt;br&gt;Moving,&lt;br&gt;ChangingPattern,&lt;br&gt;Attacking" style="text;strokeColor=none;fillColor=none;align=left;verticalAlign=middle;spacingLeft=4;spacingRight=4;overflow=hidden;points=[[0,0.5],[1,0.5]];portConstraint=eastwest;rotatable=0;whiteSpace=wrap;html=1;labelBackgroundColor=none;rounded=0;sketch=1;curveFitting=1;jiggle=2;fontColor=#46495D;" parent="bwt9VeVOE_LFPgZfpiQ7-37" vertex="1">
          <mxGeometry y="30" width="140" height="70" as="geometry" />
        </mxCell>
        <mxCell id="bwt9VeVOE_LFPgZfpiQ7-39" style="edgeStyle=orthogonalEdgeStyle;rounded=0;orthogonalLoop=1;jettySize=auto;html=1;entryX=1;entryY=0.25;entryDx=0;entryDy=0;labelBackgroundColor=none;fontColor=default;sketch=1;curveFitting=1;jiggle=2;strokeColor=#788AA3;" parent="1" source="bwt9VeVOE_LFPgZfpiQ7-7" target="bwt9VeVOE_LFPgZfpiQ7-37" edge="1">
          <mxGeometry relative="1" as="geometry" />
        </mxCell>
        <mxCell id="bwt9VeVOE_LFPgZfpiQ7-40" value="EnemyAttack : MonoBehaviour" style="swimlane;fontStyle=0;childLayout=stackLayout;horizontal=1;startSize=30;horizontalStack=0;resizeParent=1;resizeParentMax=0;resizeLast=0;collapsible=1;marginBottom=0;whiteSpace=wrap;html=1;labelBackgroundColor=none;rounded=0;sketch=1;curveFitting=1;jiggle=2;fillColor=#B2C9AB;strokeColor=#788AA3;fontColor=#46495D;" parent="1" vertex="1">
          <mxGeometry x="-430" y="615" width="270" height="160" as="geometry">
            <mxRectangle x="330" y="430" width="60" height="30" as="alternateBounds" />
          </mxGeometry>
        </mxCell>
        <mxCell id="bwt9VeVOE_LFPgZfpiQ7-41" value="- Transform enemyBulletPosition&lt;br&gt;- AudioSpectrum audioSpectrum&lt;br&gt;- GameObject bullet" style="text;strokeColor=none;fillColor=none;align=left;verticalAlign=middle;spacingLeft=4;spacingRight=4;overflow=hidden;points=[[0,0.5],[1,0.5]];portConstraint=eastwest;rotatable=0;whiteSpace=wrap;html=1;labelBackgroundColor=none;rounded=0;sketch=1;curveFitting=1;jiggle=2;fontColor=#46495D;" parent="bwt9VeVOE_LFPgZfpiQ7-40" vertex="1">
          <mxGeometry y="30" width="270" height="90" as="geometry" />
        </mxCell>
        <mxCell id="bwt9VeVOE_LFPgZfpiQ7-42" value="- void ShootBullet();" style="text;fillColor=none;align=left;verticalAlign=middle;spacingLeft=4;spacingRight=4;overflow=hidden;points=[[0,0.5],[1,0.5]];portConstraint=eastwest;rotatable=0;whiteSpace=wrap;html=1;labelBackgroundColor=none;rounded=0;sketch=1;curveFitting=1;jiggle=2;fontColor=#46495D;" parent="bwt9VeVOE_LFPgZfpiQ7-40" vertex="1">
          <mxGeometry y="120" width="270" height="40" as="geometry" />
        </mxCell>
        <mxCell id="bwt9VeVOE_LFPgZfpiQ7-43" value="EnemyBullet : MonoBehaviour" style="swimlane;fontStyle=0;childLayout=stackLayout;horizontal=1;startSize=30;horizontalStack=0;resizeParent=1;resizeParentMax=0;resizeLast=0;collapsible=1;marginBottom=0;whiteSpace=wrap;html=1;labelBackgroundColor=none;rounded=0;sketch=1;curveFitting=1;jiggle=2;fillColor=#B2C9AB;strokeColor=#788AA3;fontColor=#46495D;" parent="1" vertex="1">
          <mxGeometry x="-770" y="615" width="270" height="180" as="geometry">
            <mxRectangle x="330" y="430" width="60" height="30" as="alternateBounds" />
          </mxGeometry>
        </mxCell>
        <mxCell id="bwt9VeVOE_LFPgZfpiQ7-44" value="- float speed&lt;br&gt;- float timer&lt;br&gt;- int damage&lt;br&gt;- Vector3 moveVector" style="text;strokeColor=none;fillColor=none;align=left;verticalAlign=middle;spacingLeft=4;spacingRight=4;overflow=hidden;points=[[0,0.5],[1,0.5]];portConstraint=eastwest;rotatable=0;whiteSpace=wrap;html=1;labelBackgroundColor=none;rounded=0;sketch=1;curveFitting=1;jiggle=2;fontColor=#46495D;" parent="bwt9VeVOE_LFPgZfpiQ7-43" vertex="1">
          <mxGeometry y="30" width="270" height="90" as="geometry" />
        </mxCell>
        <mxCell id="bwt9VeVOE_LFPgZfpiQ7-45" value="- IEnumerator Move();&lt;br&gt;- IEnumerator Timer();&lt;br&gt;-OnTriggerEnter2D();" style="text;fillColor=none;align=left;verticalAlign=middle;spacingLeft=4;spacingRight=4;overflow=hidden;points=[[0,0.5],[1,0.5]];portConstraint=eastwest;rotatable=0;whiteSpace=wrap;html=1;labelBackgroundColor=none;rounded=0;sketch=1;curveFitting=1;jiggle=2;fontColor=#46495D;" parent="bwt9VeVOE_LFPgZfpiQ7-43" vertex="1">
          <mxGeometry y="120" width="270" height="60" as="geometry" />
        </mxCell>
        <mxCell id="bwt9VeVOE_LFPgZfpiQ7-46" style="edgeStyle=orthogonalEdgeStyle;rounded=0;orthogonalLoop=1;jettySize=auto;html=1;entryX=0.994;entryY=0.129;entryDx=0;entryDy=0;entryPerimeter=0;labelBackgroundColor=none;fontColor=default;sketch=1;curveFitting=1;jiggle=2;strokeColor=#788AA3;" parent="1" target="bwt9VeVOE_LFPgZfpiQ7-43" edge="1">
          <mxGeometry relative="1" as="geometry">
            <mxPoint x="-430" y="705" as="sourcePoint" />
          </mxGeometry>
        </mxCell>
        <mxCell id="bwt9VeVOE_LFPgZfpiQ7-47" style="edgeStyle=orthogonalEdgeStyle;rounded=0;orthogonalLoop=1;jettySize=auto;html=1;entryX=0.5;entryY=0;entryDx=0;entryDy=0;labelBackgroundColor=none;fontColor=default;sketch=1;curveFitting=1;jiggle=2;strokeColor=#788AA3;" parent="1" source="bwt9VeVOE_LFPgZfpiQ7-48" target="bwt9VeVOE_LFPgZfpiQ7-53" edge="1">
          <mxGeometry relative="1" as="geometry" />
        </mxCell>
        <mxCell id="bwt9VeVOE_LFPgZfpiQ7-48" value="EnemySpawner : MonoBehaviour" style="swimlane;fontStyle=0;childLayout=stackLayout;horizontal=1;startSize=30;horizontalStack=0;resizeParent=1;resizeParentMax=0;resizeLast=0;collapsible=1;marginBottom=0;whiteSpace=wrap;html=1;labelBackgroundColor=none;rounded=0;sketch=1;curveFitting=1;jiggle=2;fillColor=#B2C9AB;strokeColor=#788AA3;fontColor=#46495D;" parent="1" vertex="1">
          <mxGeometry x="-270" y="-290" width="270" height="200" as="geometry">
            <mxRectangle x="330" y="430" width="60" height="30" as="alternateBounds" />
          </mxGeometry>
        </mxCell>
        <mxCell id="bwt9VeVOE_LFPgZfpiQ7-49" value="- EnemySO enemy;&lt;br&gt;- AudioSpectrum audioSpectrum" style="text;strokeColor=none;fillColor=none;align=left;verticalAlign=middle;spacingLeft=4;spacingRight=4;overflow=hidden;points=[[0,0.5],[1,0.5]];portConstraint=eastwest;rotatable=0;whiteSpace=wrap;html=1;labelBackgroundColor=none;rounded=0;sketch=1;curveFitting=1;jiggle=2;fontColor=#46495D;" parent="bwt9VeVOE_LFPgZfpiQ7-48" vertex="1">
          <mxGeometry y="30" width="270" height="100" as="geometry" />
        </mxCell>
        <mxCell id="bwt9VeVOE_LFPgZfpiQ7-50" value="- void SpawnEnemy();&lt;br&gt;- void RemoveEnemy();" style="text;fillColor=none;align=left;verticalAlign=middle;spacingLeft=4;spacingRight=4;overflow=hidden;points=[[0,0.5],[1,0.5]];portConstraint=eastwest;rotatable=0;whiteSpace=wrap;html=1;labelBackgroundColor=none;rounded=0;sketch=1;curveFitting=1;jiggle=2;fontColor=#46495D;" parent="bwt9VeVOE_LFPgZfpiQ7-48" vertex="1">
          <mxGeometry y="130" width="270" height="70" as="geometry" />
        </mxCell>
        <mxCell id="bwt9VeVOE_LFPgZfpiQ7-51" style="edgeStyle=orthogonalEdgeStyle;rounded=0;orthogonalLoop=1;jettySize=auto;html=1;entryX=1;entryY=0.5;entryDx=0;entryDy=0;labelBackgroundColor=none;fontColor=default;sketch=1;curveFitting=1;jiggle=2;strokeColor=#788AA3;" parent="1" source="bwt9VeVOE_LFPgZfpiQ7-3" target="bwt9VeVOE_LFPgZfpiQ7-49" edge="1">
          <mxGeometry relative="1" as="geometry" />
        </mxCell>
        <mxCell id="bwt9VeVOE_LFPgZfpiQ7-52" style="edgeStyle=orthogonalEdgeStyle;rounded=0;orthogonalLoop=1;jettySize=auto;html=1;entryX=0.5;entryY=0;entryDx=0;entryDy=0;labelBackgroundColor=none;fontColor=default;sketch=1;curveFitting=1;jiggle=2;strokeColor=#788AA3;" parent="1" source="bwt9VeVOE_LFPgZfpiQ7-53" target="bwt9VeVOE_LFPgZfpiQ7-6" edge="1">
          <mxGeometry relative="1" as="geometry" />
        </mxCell>
        <mxCell id="bwt9VeVOE_LFPgZfpiQ7-53" value="EnemySO : ScripableObject" style="swimlane;fontStyle=0;childLayout=stackLayout;horizontal=1;startSize=30;horizontalStack=0;resizeParent=1;resizeParentMax=0;resizeLast=0;collapsible=1;marginBottom=0;whiteSpace=wrap;html=1;labelBackgroundColor=none;rounded=0;sketch=1;curveFitting=1;jiggle=2;fillColor=#B2C9AB;strokeColor=#788AA3;fontColor=#46495D;" parent="1" vertex="1">
          <mxGeometry x="-270" y="-40" width="270" height="200" as="geometry">
            <mxRectangle x="330" y="430" width="60" height="30" as="alternateBounds" />
          </mxGeometry>
        </mxCell>
        <mxCell id="bwt9VeVOE_LFPgZfpiQ7-54" value="+ string enemyName&lt;br&gt;+ GameObject enemyPrefab" style="text;strokeColor=none;fillColor=none;align=left;verticalAlign=middle;spacingLeft=4;spacingRight=4;overflow=hidden;points=[[0,0.5],[1,0.5]];portConstraint=eastwest;rotatable=0;whiteSpace=wrap;html=1;labelBackgroundColor=none;rounded=0;sketch=1;curveFitting=1;jiggle=2;fontColor=#46495D;" parent="bwt9VeVOE_LFPgZfpiQ7-53" vertex="1">
          <mxGeometry y="30" width="270" height="100" as="geometry" />
        </mxCell>
        <mxCell id="bwt9VeVOE_LFPgZfpiQ7-55" value="" style="text;fillColor=none;align=left;verticalAlign=middle;spacingLeft=4;spacingRight=4;overflow=hidden;points=[[0,0.5],[1,0.5]];portConstraint=eastwest;rotatable=0;whiteSpace=wrap;html=1;labelBackgroundColor=none;rounded=0;sketch=1;curveFitting=1;jiggle=2;fontColor=#46495D;" parent="bwt9VeVOE_LFPgZfpiQ7-53" vertex="1">
          <mxGeometry y="130" width="270" height="70" as="geometry" />
        </mxCell>
        <mxCell id="bwt9VeVOE_LFPgZfpiQ7-60" value="PlayerShip" style="swimlane;fontStyle=0;childLayout=stackLayout;horizontal=1;startSize=30;horizontalStack=0;resizeParent=1;resizeParentMax=0;resizeLast=0;collapsible=1;marginBottom=0;whiteSpace=wrap;html=1;labelBackgroundColor=none;rounded=0;sketch=1;curveFitting=1;jiggle=2;fillColor=#B2C9AB;strokeColor=#788AA3;fontColor=#46495D;" parent="1" vertex="1">
          <mxGeometry x="1110" y="110" width="340" height="200" as="geometry" />
        </mxCell>
        <mxCell id="bwt9VeVOE_LFPgZfpiQ7-61" value="&lt;span style=&quot;background-color: rgb(255, 255, 255);&quot;&gt;&lt;font color=&quot;#000000&quot;&gt;&lt;br&gt;&lt;span style=&quot;font-family: Helvetica; font-size: 12px; font-style: normal; font-variant-ligatures: normal; font-variant-caps: normal; font-weight: 400; letter-spacing: normal; orphans: 2; text-align: left; text-indent: 0px; text-transform: none; widows: 2; word-spacing: 0px; -webkit-text-stroke-width: 0px; text-decoration-thickness: initial; text-decoration-style: initial; text-decoration-color: initial; float: none; display: inline !important;&quot;&gt;&amp;nbsp;- void Move();&lt;/span&gt;&lt;br style=&quot;border-color: rgb(0, 0, 0); font-family: Helvetica; font-size: 12px; font-style: normal; font-variant-ligatures: normal; font-variant-caps: normal; font-weight: 400; letter-spacing: normal; orphans: 2; text-align: left; text-indent: 0px; text-transform: none; widows: 2; word-spacing: 0px; -webkit-text-stroke-width: 0px; text-decoration-thickness: initial; text-decoration-style: initial; text-decoration-color: initial;&quot;&gt;&lt;br style=&quot;border-color: rgb(0, 0, 0); font-family: Helvetica; font-size: 12px; font-style: normal; font-variant-ligatures: normal; font-variant-caps: normal; font-weight: 400; letter-spacing: normal; orphans: 2; text-align: left; text-indent: 0px; text-transform: none; widows: 2; word-spacing: 0px; -webkit-text-stroke-width: 0px; text-decoration-thickness: initial; text-decoration-style: initial; text-decoration-color: initial;&quot;&gt;&lt;span style=&quot;font-family: Helvetica; font-size: 12px; font-style: normal; font-variant-ligatures: normal; font-variant-caps: normal; font-weight: 400; letter-spacing: normal; orphans: 2; text-align: left; text-indent: 0px; text-transform: none; widows: 2; word-spacing: 0px; -webkit-text-stroke-width: 0px; text-decoration-thickness: initial; text-decoration-style: initial; text-decoration-color: initial; float: none; display: inline !important;&quot;&gt;// if 3d&lt;/span&gt;&lt;br style=&quot;border-color: rgb(0, 0, 0); font-family: Helvetica; font-size: 12px; font-style: normal; font-variant-ligatures: normal; font-variant-caps: normal; font-weight: 400; letter-spacing: normal; orphans: 2; text-align: left; text-indent: 0px; text-transform: none; widows: 2; word-spacing: 0px; -webkit-text-stroke-width: 0px; text-decoration-thickness: initial; text-decoration-style: initial; text-decoration-color: initial;&quot;&gt;&lt;span style=&quot;font-family: Helvetica; font-size: 12px; font-style: normal; font-variant-ligatures: normal; font-variant-caps: normal; font-weight: 400; letter-spacing: normal; orphans: 2; text-align: left; text-indent: 0px; text-transform: none; widows: 2; word-spacing: 0px; -webkit-text-stroke-width: 0px; text-decoration-thickness: initial; text-decoration-style: initial; text-decoration-color: initial; float: none; display: inline !important;&quot;&gt;&amp;nbsp;- void Rotation();&lt;/span&gt;&lt;br style=&quot;border-color: rgb(0, 0, 0); font-family: Helvetica; font-size: 12px; font-style: normal; font-variant-ligatures: normal; font-variant-caps: normal; font-weight: 400; letter-spacing: normal; orphans: 2; text-align: left; text-indent: 0px; text-transform: none; widows: 2; word-spacing: 0px; -webkit-text-stroke-width: 0px; text-decoration-thickness: initial; text-decoration-style: initial; text-decoration-color: initial;&quot;&gt;&lt;br style=&quot;border-color: rgb(0, 0, 0); font-family: Helvetica; font-size: 12px; font-style: normal; font-variant-ligatures: normal; font-variant-caps: normal; font-weight: 400; letter-spacing: normal; orphans: 2; text-align: left; text-indent: 0px; text-transform: none; widows: 2; word-spacing: 0px; -webkit-text-stroke-width: 0px; text-decoration-thickness: initial; text-decoration-style: initial; text-decoration-color: initial;&quot;&gt;&lt;span style=&quot;font-family: Helvetica; font-size: 12px; font-style: normal; font-variant-ligatures: normal; font-variant-caps: normal; font-weight: 400; letter-spacing: normal; orphans: 2; text-align: left; text-indent: 0px; text-transform: none; widows: 2; word-spacing: 0px; -webkit-text-stroke-width: 0px; text-decoration-thickness: initial; text-decoration-style: initial; text-decoration-color: initial; float: none; display: inline !important;&quot;&gt;// if 2d&lt;/span&gt;&lt;br style=&quot;border-color: rgb(0, 0, 0); font-family: Helvetica; font-size: 12px; font-style: normal; font-variant-ligatures: normal; font-variant-caps: normal; font-weight: 400; letter-spacing: normal; orphans: 2; text-align: left; text-indent: 0px; text-transform: none; widows: 2; word-spacing: 0px; -webkit-text-stroke-width: 0px; text-decoration-thickness: initial; text-decoration-style: initial; text-decoration-color: initial;&quot;&gt;&lt;span style=&quot;font-family: Helvetica; font-size: 12px; font-style: normal; font-variant-ligatures: normal; font-variant-caps: normal; font-weight: 400; letter-spacing: normal; orphans: 2; text-align: left; text-indent: 0px; text-transform: none; widows: 2; word-spacing: 0px; -webkit-text-stroke-width: 0px; text-decoration-thickness: initial; text-decoration-style: initial; text-decoration-color: initial; float: none; display: inline !important;&quot;&gt;&amp;nbsp;- void AnimHandler();&lt;/span&gt;&lt;br style=&quot;border-color: rgb(0, 0, 0); font-family: Helvetica; font-size: 12px; font-style: normal; font-variant-ligatures: normal; font-variant-caps: normal; font-weight: 400; letter-spacing: normal; orphans: 2; text-align: left; text-indent: 0px; text-transform: none; widows: 2; word-spacing: 0px; -webkit-text-stroke-width: 0px; text-decoration-thickness: initial; text-decoration-style: initial; text-decoration-color: initial;&quot;&gt;&lt;br style=&quot;border-color: rgb(0, 0, 0); font-family: Helvetica; font-size: 12px; font-style: normal; font-variant-ligatures: normal; font-variant-caps: normal; font-weight: 400; letter-spacing: normal; orphans: 2; text-align: left; text-indent: 0px; text-transform: none; widows: 2; word-spacing: 0px; -webkit-text-stroke-width: 0px; text-decoration-thickness: initial; text-decoration-style: initial; text-decoration-color: initial;&quot;&gt;&lt;span style=&quot;font-family: Helvetica; font-size: 12px; font-style: normal; font-variant-ligatures: normal; font-variant-caps: normal; font-weight: 400; letter-spacing: normal; orphans: 2; text-align: left; text-indent: 0px; text-transform: none; widows: 2; word-spacing: 0px; -webkit-text-stroke-width: 0px; text-decoration-thickness: initial; text-decoration-style: initial; text-decoration-color: initial; float: none; display: inline !important;&quot;&gt;- void TakeDamage();&lt;/span&gt;&lt;br style=&quot;border-color: rgb(0, 0, 0); font-family: Helvetica; font-size: 12px; font-style: normal; font-variant-ligatures: normal; font-variant-caps: normal; font-weight: 400; letter-spacing: normal; orphans: 2; text-align: left; text-indent: 0px; text-transform: none; widows: 2; word-spacing: 0px; -webkit-text-stroke-width: 0px; text-decoration-thickness: initial; text-decoration-style: initial; text-decoration-color: initial;&quot;&gt;&lt;span style=&quot;font-family: Helvetica; font-size: 12px; font-style: normal; font-variant-ligatures: normal; font-variant-caps: normal; font-weight: 400; letter-spacing: normal; orphans: 2; text-align: left; text-indent: 0px; text-transform: none; widows: 2; word-spacing: 0px; -webkit-text-stroke-width: 0px; text-decoration-thickness: initial; text-decoration-style: initial; text-decoration-color: initial; float: none; display: inline !important;&quot;&gt;- void Die();&lt;/span&gt;&lt;/font&gt;&lt;br&gt;&lt;/span&gt;" style="text;fillColor=none;align=left;verticalAlign=middle;spacingLeft=4;spacingRight=4;overflow=hidden;points=[[0,0.5],[1,0.5]];portConstraint=eastwest;rotatable=0;whiteSpace=wrap;html=1;labelBackgroundColor=none;rounded=0;sketch=1;curveFitting=1;jiggle=2;fontColor=#46495D;" parent="bwt9VeVOE_LFPgZfpiQ7-60" vertex="1">
          <mxGeometry y="30" width="340" height="170" as="geometry" />
        </mxCell>
        <mxCell id="bwt9VeVOE_LFPgZfpiQ7-62" value="PlayerShipSO : ScriptableObject&lt;br&gt;" style="swimlane;fontStyle=0;childLayout=stackLayout;horizontal=1;startSize=30;horizontalStack=0;resizeParent=1;resizeParentMax=0;resizeLast=0;collapsible=1;marginBottom=0;whiteSpace=wrap;html=1;labelBackgroundColor=none;rounded=0;sketch=1;curveFitting=1;jiggle=2;fillColor=#B2C9AB;strokeColor=#788AA3;fontColor=#46495D;" parent="1" vertex="1">
          <mxGeometry x="1600" y="135" width="200" height="170" as="geometry" />
        </mxCell>
        <mxCell id="bwt9VeVOE_LFPgZfpiQ7-63" value="+int health&lt;br&gt;+float movementSpeed&lt;br&gt;+int CrewCount&lt;br&gt;+SpriteRenderer sprite&lt;br&gt;+GameObject shipPrefab" style="text;strokeColor=none;fillColor=none;align=left;verticalAlign=middle;spacingLeft=4;spacingRight=4;overflow=hidden;points=[[0,0.5],[1,0.5]];portConstraint=eastwest;rotatable=0;whiteSpace=wrap;html=1;labelBackgroundColor=none;rounded=0;sketch=1;curveFitting=1;jiggle=2;fontColor=#46495D;" parent="bwt9VeVOE_LFPgZfpiQ7-62" vertex="1">
          <mxGeometry y="30" width="200" height="140" as="geometry" />
        </mxCell>
        <mxCell id="bwt9VeVOE_LFPgZfpiQ7-103" style="edgeStyle=orthogonalEdgeStyle;rounded=0;orthogonalLoop=1;jettySize=auto;html=1;entryX=0.5;entryY=0;entryDx=0;entryDy=0;strokeColor=#788AA3;fontColor=#46495D;fillColor=#B2C9AB;" parent="1" source="bwt9VeVOE_LFPgZfpiQ7-73" target="bwt9VeVOE_LFPgZfpiQ7-13" edge="1">
          <mxGeometry relative="1" as="geometry" />
        </mxCell>
        <mxCell id="bwt9VeVOE_LFPgZfpiQ7-73" value="&lt;p style=&quot;margin:0px;margin-top:4px;text-align:center;&quot;&gt;&lt;i&gt;&amp;lt;&amp;lt;Interface&amp;gt;&amp;gt;&lt;/i&gt;&lt;br&gt;&lt;b&gt;Crew&lt;/b&gt;&lt;/p&gt;&lt;hr size=&quot;1&quot;&gt;&lt;p style=&quot;margin:0px;margin-left:4px;&quot;&gt;+ field1: Type&lt;br&gt;+ field2: Type&lt;/p&gt;&lt;hr size=&quot;1&quot;&gt;&lt;p style=&quot;margin:0px;margin-left:4px;&quot;&gt;+ method1(Type): Type&lt;br&gt;+ method2(Type, Type): Type&lt;/p&gt;" style="verticalAlign=top;align=left;overflow=fill;fontSize=12;fontFamily=Helvetica;html=1;whiteSpace=wrap;labelBackgroundColor=none;rounded=0;sketch=1;curveFitting=1;jiggle=2;fillColor=#67AB9F;strokeColor=#788AA3;fontColor=#46495D;" parent="1" vertex="1">
          <mxGeometry x="680" y="-280" width="320" height="200" as="geometry" />
        </mxCell>
        <mxCell id="bwt9VeVOE_LFPgZfpiQ7-78" style="edgeStyle=orthogonalEdgeStyle;rounded=0;orthogonalLoop=1;jettySize=auto;html=1;entryX=1.003;entryY=0.42;entryDx=0;entryDy=0;entryPerimeter=0;labelBackgroundColor=none;fontColor=default;sketch=1;curveFitting=1;jiggle=2;strokeColor=#788AA3;" parent="1" source="bwt9VeVOE_LFPgZfpiQ7-62" target="bwt9VeVOE_LFPgZfpiQ7-61" edge="1">
          <mxGeometry relative="1" as="geometry" />
        </mxCell>
        <mxCell id="bwt9VeVOE_LFPgZfpiQ7-79" style="edgeStyle=orthogonalEdgeStyle;rounded=0;orthogonalLoop=1;jettySize=auto;html=1;entryX=1;entryY=0.5;entryDx=0;entryDy=0;labelBackgroundColor=none;fontColor=default;sketch=1;curveFitting=1;jiggle=2;strokeColor=#788AA3;" parent="1" source="bwt9VeVOE_LFPgZfpiQ7-61" target="bwt9VeVOE_LFPgZfpiQ7-15" edge="1">
          <mxGeometry relative="1" as="geometry" />
        </mxCell>
        <mxCell id="bwt9VeVOE_LFPgZfpiQ7-94" value="&lt;p style=&quot;margin:0px;margin-top:4px;text-align:center;&quot;&gt;&lt;b&gt;Projectile&lt;/b&gt;&lt;/p&gt;&lt;hr size=&quot;1&quot;&gt;&lt;p style=&quot;margin:0px;margin-left:4px;&quot;&gt;&lt;font color=&quot;#000000&quot;&gt;+ field: Type&lt;/font&gt;&lt;/p&gt;&lt;hr size=&quot;1&quot;&gt;&lt;p style=&quot;margin:0px;margin-left:4px;&quot;&gt;&lt;font color=&quot;#000000&quot;&gt;- Laser();&lt;/font&gt;&lt;/p&gt;&lt;p style=&quot;margin:0px;margin-left:4px;&quot;&gt;&lt;font color=&quot;#000000&quot;&gt;- Missile();&lt;/font&gt;&lt;/p&gt;&lt;p style=&quot;margin:0px;margin-left:4px;&quot;&gt;&lt;font color=&quot;#000000&quot;&gt;- SonicBomb();&lt;/font&gt;&lt;/p&gt;" style="verticalAlign=top;align=left;overflow=fill;fontSize=12;fontFamily=Helvetica;html=1;whiteSpace=wrap;strokeColor=#788AA3;fontColor=#46495D;fillColor=#B2C9AB;sketch=1;curveFitting=1;jiggle=2;" parent="1" vertex="1">
          <mxGeometry x="290" y="390" width="160" height="140" as="geometry" />
        </mxCell>
        <mxCell id="bwt9VeVOE_LFPgZfpiQ7-97" value="GameManager" style="swimlane;fontStyle=0;childLayout=stackLayout;horizontal=1;startSize=30;horizontalStack=0;resizeParent=1;resizeParentMax=0;resizeLast=0;collapsible=1;marginBottom=0;whiteSpace=wrap;html=1;strokeColor=#788AA3;fontColor=#46495D;fillColor=#B2C9AB;" parent="1" vertex="1">
          <mxGeometry x="1700" y="-704" width="140" height="120" as="geometry" />
        </mxCell>
        <mxCell id="bwt9VeVOE_LFPgZfpiQ7-98" value="Item 1" style="text;strokeColor=none;fillColor=none;align=left;verticalAlign=middle;spacingLeft=4;spacingRight=4;overflow=hidden;points=[[0,0.5],[1,0.5]];portConstraint=eastwest;rotatable=0;whiteSpace=wrap;html=1;fontColor=#46495D;" parent="bwt9VeVOE_LFPgZfpiQ7-97" vertex="1">
          <mxGeometry y="30" width="140" height="30" as="geometry" />
        </mxCell>
        <mxCell id="bwt9VeVOE_LFPgZfpiQ7-99" value="Item 2" style="text;strokeColor=none;fillColor=none;align=left;verticalAlign=middle;spacingLeft=4;spacingRight=4;overflow=hidden;points=[[0,0.5],[1,0.5]];portConstraint=eastwest;rotatable=0;whiteSpace=wrap;html=1;fontColor=#46495D;" parent="bwt9VeVOE_LFPgZfpiQ7-97" vertex="1">
          <mxGeometry y="60" width="140" height="30" as="geometry" />
        </mxCell>
        <mxCell id="bwt9VeVOE_LFPgZfpiQ7-100" value="Item 3" style="text;strokeColor=none;fillColor=none;align=left;verticalAlign=middle;spacingLeft=4;spacingRight=4;overflow=hidden;points=[[0,0.5],[1,0.5]];portConstraint=eastwest;rotatable=0;whiteSpace=wrap;html=1;fontColor=#46495D;" parent="bwt9VeVOE_LFPgZfpiQ7-97" vertex="1">
          <mxGeometry y="90" width="140" height="30" as="geometry" />
        </mxCell>
        <mxCell id="bwt9VeVOE_LFPgZfpiQ7-101" value="&lt;p style=&quot;margin:0px;margin-top:4px;text-align:center;text-decoration:underline;&quot;&gt;&lt;b&gt;Object:Type&lt;/b&gt;&lt;/p&gt;&lt;hr/&gt;&lt;p style=&quot;margin:0px;margin-left:8px;&quot;&gt;field1 = value1&lt;br/&gt;field2 = value2&lt;br&gt;field3 = value3&lt;/p&gt;" style="verticalAlign=top;align=left;overflow=fill;fontSize=12;fontFamily=Helvetica;html=1;whiteSpace=wrap;strokeColor=#788AA3;fontColor=#46495D;fillColor=#B2C9AB;" parent="1" vertex="1">
          <mxGeometry x="1700" y="-825" width="160" height="90" as="geometry" />
        </mxCell>
        <mxCell id="bwt9VeVOE_LFPgZfpiQ7-102" style="edgeStyle=orthogonalEdgeStyle;rounded=0;orthogonalLoop=1;jettySize=auto;html=1;entryX=0.5;entryY=0;entryDx=0;entryDy=0;strokeColor=#788AA3;fontColor=#46495D;fillColor=#B2C9AB;" parent="1" source="bwt9VeVOE_LFPgZfpiQ7-3" target="bwt9VeVOE_LFPgZfpiQ7-73" edge="1">
          <mxGeometry relative="1" as="geometry" />
        </mxCell>
        <mxCell id="bwt9VeVOE_LFPgZfpiQ7-106" value="&lt;p style=&quot;margin:0px;margin-top:4px;text-align:center;&quot;&gt;&lt;b&gt;UIPanel&lt;/b&gt;&lt;/p&gt;&lt;hr size=&quot;1&quot;&gt;&lt;p style=&quot;margin:0px;margin-left:4px;&quot;&gt;+ field: Type&lt;/p&gt;&lt;hr size=&quot;1&quot;&gt;&lt;p style=&quot;margin:0px;margin-left:4px;&quot;&gt;+ method(): Type&lt;/p&gt;" style="verticalAlign=top;align=left;overflow=fill;fontSize=12;fontFamily=Helvetica;html=1;whiteSpace=wrap;strokeColor=#788AA3;fontColor=#46495D;fillColor=#B2C9AB;sketch=1;curveFitting=1;jiggle=2;shadow=1;glass=1;rounded=0;" parent="1" vertex="1">
          <mxGeometry x="1690" y="-520" width="160" height="90" as="geometry" />
        </mxCell>
        <mxCell id="mT-NAwTQ-QlgSSxJJy9D-1" style="edgeStyle=orthogonalEdgeStyle;orthogonalLoop=1;jettySize=auto;html=1;sketch=1;curveFitting=1;jiggle=2;fillColor=#d5e8d4;strokeColor=#82b366;" parent="1" source="mT-NAwTQ-QlgSSxJJy9D-4" target="mT-NAwTQ-QlgSSxJJy9D-9" edge="1">
          <mxGeometry relative="1" as="geometry" />
        </mxCell>
        <mxCell id="mT-NAwTQ-QlgSSxJJy9D-2" style="edgeStyle=orthogonalEdgeStyle;orthogonalLoop=1;jettySize=auto;html=1;entryX=0.5;entryY=0;entryDx=0;entryDy=0;sketch=1;curveFitting=1;jiggle=2;fillColor=#d5e8d4;strokeColor=#82b366;" parent="1" source="mT-NAwTQ-QlgSSxJJy9D-4" target="mT-NAwTQ-QlgSSxJJy9D-13" edge="1">
          <mxGeometry relative="1" as="geometry" />
        </mxCell>
        <mxCell id="mT-NAwTQ-QlgSSxJJy9D-19" style="edgeStyle=orthogonalEdgeStyle;rounded=0;orthogonalLoop=1;jettySize=auto;html=1;entryX=0.5;entryY=0;entryDx=0;entryDy=0;sketch=1;curveFitting=1;jiggle=2;fillColor=#d5e8d4;strokeColor=#82b366;" parent="1" source="mT-NAwTQ-QlgSSxJJy9D-4" target="mT-NAwTQ-QlgSSxJJy9D-16" edge="1">
          <mxGeometry relative="1" as="geometry" />
        </mxCell>
        <mxCell id="mT-NAwTQ-QlgSSxJJy9D-4" value="GameManager" style="swimlane;fontStyle=0;childLayout=stackLayout;horizontal=1;startSize=30;horizontalStack=0;resizeParent=1;resizeParentMax=0;resizeLast=0;collapsible=1;marginBottom=0;whiteSpace=wrap;html=1;strokeColor=#82b366;rounded=0;sketch=1;curveFitting=1;jiggle=2;fillColor=#d5e8d4;" parent="1" vertex="1">
          <mxGeometry x="285" y="-1060" width="180" height="100" as="geometry" />
        </mxCell>
        <mxCell id="mT-NAwTQ-QlgSSxJJy9D-5" value="- GameState gameState" style="text;align=left;verticalAlign=middle;spacingLeft=4;spacingRight=4;overflow=hidden;points=[[0,0.5],[1,0.5]];portConstraint=eastwest;rotatable=0;whiteSpace=wrap;html=1;strokeColor=#82b366;rounded=0;sketch=1;curveFitting=1;jiggle=2;fillColor=#d5e8d4;" parent="mT-NAwTQ-QlgSSxJJy9D-4" vertex="1">
          <mxGeometry y="30" width="180" height="40" as="geometry" />
        </mxCell>
        <mxCell id="mT-NAwTQ-QlgSSxJJy9D-6" value="-LoadScene();" style="text;align=left;verticalAlign=middle;spacingLeft=4;spacingRight=4;overflow=hidden;points=[[0,0.5],[1,0.5]];portConstraint=eastwest;rotatable=0;whiteSpace=wrap;html=1;strokeColor=#82b366;rounded=0;sketch=1;curveFitting=1;jiggle=2;fillColor=#d5e8d4;" parent="mT-NAwTQ-QlgSSxJJy9D-4" vertex="1">
          <mxGeometry y="70" width="180" height="30" as="geometry" />
        </mxCell>
        <mxCell id="mT-NAwTQ-QlgSSxJJy9D-7" value="&lt;p style=&quot;margin:0px;margin-top:4px;text-align:center;text-decoration:underline;&quot;&gt;&lt;b&gt;enum GameState&lt;/b&gt;&lt;/p&gt;&lt;p style=&quot;margin: 4px 0px 0px; text-decoration: underline;&quot;&gt;&lt;b&gt;MainMenu,&lt;/b&gt;&lt;/p&gt;&lt;p style=&quot;margin: 4px 0px 0px; text-decoration: underline;&quot;&gt;&lt;b&gt;Play,&lt;/b&gt;&lt;/p&gt;&lt;p style=&quot;margin: 4px 0px 0px; text-decoration: underline;&quot;&gt;&lt;b&gt;Pause,&lt;/b&gt;&lt;/p&gt;&lt;p style=&quot;margin: 4px 0px 0px; text-decoration: underline;&quot;&gt;&lt;b&gt;Win,&lt;/b&gt;&lt;/p&gt;&lt;p style=&quot;margin: 4px 0px 0px; text-decoration: underline;&quot;&gt;&lt;b&gt;GameOver&lt;/b&gt;&lt;/p&gt;" style="verticalAlign=top;align=left;overflow=fill;fontSize=12;fontFamily=Helvetica;html=1;whiteSpace=wrap;strokeColor=#82b366;rounded=0;sketch=1;curveFitting=1;jiggle=2;fillColor=#d5e8d4;" parent="1" vertex="1">
          <mxGeometry x="90" y="-1070" width="160" height="120" as="geometry" />
        </mxCell>
        <mxCell id="mT-NAwTQ-QlgSSxJJy9D-8" style="edgeStyle=orthogonalEdgeStyle;orthogonalLoop=1;jettySize=auto;html=1;entryX=0.007;entryY=-0.045;entryDx=0;entryDy=0;entryPerimeter=0;sketch=1;curveFitting=1;jiggle=2;fillColor=#d5e8d4;strokeColor=#82b366;" parent="1" source="mT-NAwTQ-QlgSSxJJy9D-7" target="mT-NAwTQ-QlgSSxJJy9D-6" edge="1">
          <mxGeometry relative="1" as="geometry" />
        </mxCell>
        <mxCell id="mT-NAwTQ-QlgSSxJJy9D-9" value="AdsManager" style="swimlane;fontStyle=0;childLayout=stackLayout;horizontal=1;startSize=26;fillColor=#d5e8d4;horizontalStack=0;resizeParent=1;resizeParentMax=0;resizeLast=0;collapsible=1;marginBottom=0;whiteSpace=wrap;html=1;strokeColor=#82b366;sketch=1;curveFitting=1;jiggle=2;shadow=1;glass=1;" parent="1" vertex="1">
          <mxGeometry x="1020" y="-910" width="140" height="104" as="geometry" />
        </mxCell>
        <mxCell id="mT-NAwTQ-QlgSSxJJy9D-10" value="+ field: type" style="text;strokeColor=#82b366;fillColor=#d5e8d4;align=left;verticalAlign=top;spacingLeft=4;spacingRight=4;overflow=hidden;rotatable=0;points=[[0,0.5],[1,0.5]];portConstraint=eastwest;whiteSpace=wrap;html=1;sketch=1;curveFitting=1;jiggle=2;shadow=1;glass=1;" parent="mT-NAwTQ-QlgSSxJJy9D-9" vertex="1">
          <mxGeometry y="26" width="140" height="26" as="geometry" />
        </mxCell>
        <mxCell id="mT-NAwTQ-QlgSSxJJy9D-11" value="+ field: type" style="text;strokeColor=#82b366;fillColor=#d5e8d4;align=left;verticalAlign=top;spacingLeft=4;spacingRight=4;overflow=hidden;rotatable=0;points=[[0,0.5],[1,0.5]];portConstraint=eastwest;whiteSpace=wrap;html=1;sketch=1;curveFitting=1;jiggle=2;shadow=1;glass=1;" parent="mT-NAwTQ-QlgSSxJJy9D-9" vertex="1">
          <mxGeometry y="52" width="140" height="26" as="geometry" />
        </mxCell>
        <mxCell id="mT-NAwTQ-QlgSSxJJy9D-12" value="+ field: type" style="text;strokeColor=#82b366;fillColor=#d5e8d4;align=left;verticalAlign=top;spacingLeft=4;spacingRight=4;overflow=hidden;rotatable=0;points=[[0,0.5],[1,0.5]];portConstraint=eastwest;whiteSpace=wrap;html=1;sketch=1;curveFitting=1;jiggle=2;shadow=1;glass=1;" parent="mT-NAwTQ-QlgSSxJJy9D-9" vertex="1">
          <mxGeometry y="78" width="140" height="26" as="geometry" />
        </mxCell>
        <mxCell id="mT-NAwTQ-QlgSSxJJy9D-13" value="UIPanel" style="swimlane;fontStyle=0;childLayout=stackLayout;horizontal=1;startSize=30;horizontalStack=0;resizeParent=1;resizeParentMax=0;resizeLast=0;collapsible=1;marginBottom=0;whiteSpace=wrap;html=1;labelBackgroundColor=none;rounded=0;strokeColor=#82b366;sketch=1;curveFitting=1;jiggle=2;fillColor=#d5e8d4;" parent="1" vertex="1">
          <mxGeometry x="760" y="-915" width="190" height="180" as="geometry">
            <mxRectangle x="330" y="430" width="60" height="30" as="alternateBounds" />
          </mxGeometry>
        </mxCell>
        <mxCell id="mT-NAwTQ-QlgSSxJJy9D-14" value="&lt;p style=&quot;margin: 0px 0px 0px 4px;&quot;&gt;- Text&lt;/p&gt;&lt;p style=&quot;margin: 0px 0px 0px 4px;&quot;&gt;- Image&lt;/p&gt;&lt;p style=&quot;margin: 0px 0px 0px 4px;&quot;&gt;- Button&lt;/p&gt;" style="text;align=left;verticalAlign=middle;spacingLeft=4;spacingRight=4;overflow=hidden;points=[[0,0.5],[1,0.5]];portConstraint=eastwest;rotatable=0;whiteSpace=wrap;html=1;labelBackgroundColor=none;rounded=0;strokeColor=#82b366;sketch=1;curveFitting=1;jiggle=2;fillColor=#d5e8d4;" parent="mT-NAwTQ-QlgSSxJJy9D-13" vertex="1">
          <mxGeometry y="30" width="190" height="90" as="geometry" />
        </mxCell>
        <mxCell id="mT-NAwTQ-QlgSSxJJy9D-15" value="&lt;p style=&quot;margin: 0px 0px 0px 4px;&quot;&gt;+ Play();&lt;/p&gt;&lt;p style=&quot;margin: 0px 0px 0px 4px;&quot;&gt;+ Pause();&lt;/p&gt;" style="text;align=left;verticalAlign=middle;spacingLeft=4;spacingRight=4;overflow=hidden;points=[[0,0.5],[1,0.5]];portConstraint=eastwest;rotatable=0;whiteSpace=wrap;html=1;labelBackgroundColor=none;rounded=0;strokeColor=#82b366;sketch=1;curveFitting=1;jiggle=2;fillColor=#d5e8d4;" parent="mT-NAwTQ-QlgSSxJJy9D-13" vertex="1">
          <mxGeometry y="120" width="190" height="60" as="geometry" />
        </mxCell>
        <mxCell id="mT-NAwTQ-QlgSSxJJy9D-16" value="AudioManager" style="swimlane;fontStyle=0;childLayout=stackLayout;horizontal=1;startSize=30;horizontalStack=0;resizeParent=1;resizeParentMax=0;resizeLast=0;collapsible=1;marginBottom=0;whiteSpace=wrap;html=1;labelBackgroundColor=none;rounded=0;strokeColor=#82b366;sketch=1;curveFitting=1;jiggle=2;fillColor=#d5e8d4;" parent="1" vertex="1">
          <mxGeometry x="520" y="-915" width="190" height="180" as="geometry">
            <mxRectangle x="330" y="430" width="60" height="30" as="alternateBounds" />
          </mxGeometry>
        </mxCell>
        <mxCell id="mT-NAwTQ-QlgSSxJJy9D-17" value="&lt;p style=&quot;margin: 0px 0px 0px 4px;&quot;&gt;- AudioSource audioSource&lt;/p&gt;" style="text;align=left;verticalAlign=middle;spacingLeft=4;spacingRight=4;overflow=hidden;points=[[0,0.5],[1,0.5]];portConstraint=eastwest;rotatable=0;whiteSpace=wrap;html=1;labelBackgroundColor=none;rounded=0;strokeColor=#82b366;sketch=1;curveFitting=1;jiggle=2;fillColor=#d5e8d4;" parent="mT-NAwTQ-QlgSSxJJy9D-16" vertex="1">
          <mxGeometry y="30" width="190" height="90" as="geometry" />
        </mxCell>
        <mxCell id="mT-NAwTQ-QlgSSxJJy9D-18" value="&lt;p style=&quot;margin: 0px 0px 0px 4px;&quot;&gt;+ Play();&lt;/p&gt;&lt;p style=&quot;margin: 0px 0px 0px 4px;&quot;&gt;+ Pause();&lt;/p&gt;" style="text;align=left;verticalAlign=middle;spacingLeft=4;spacingRight=4;overflow=hidden;points=[[0,0.5],[1,0.5]];portConstraint=eastwest;rotatable=0;whiteSpace=wrap;html=1;labelBackgroundColor=none;rounded=0;strokeColor=#82b366;sketch=1;curveFitting=1;jiggle=2;fillColor=#d5e8d4;" parent="mT-NAwTQ-QlgSSxJJy9D-16" vertex="1">
          <mxGeometry y="120" width="190" height="60" as="geometry" />
        </mxCell>
      </root>
    </mxGraphModel>
  </diagram>
</mxfile>
